<svg xmlns="http://www.w3.org/2000/svg" width="1200" height="630" viewBox="0 0 1200 630" role="img" aria-label="AMZREVIEWS Amazon affiliate buying guides">
  <rect width="1200" height="630" fill="#111827"/>
  <g opacity=".16" stroke="#ffffff">
    <path d="M90 0v630M210 0v630M330 0v630M450 0v630M570 0v630M690 0v630M810 0v630M930 0v630M1050 0v630"/>
    <path d="M0 90h1200M0 210h1200M0 330h1200M0 450h1200M0 570h1200"/>
  </g>
  <rect x="82" y="76" width="92" height="92" rx="22" fill="#ea580c"/>
  <path d="M104 114h48l-5 36h-38l-5-36Z" fill="#111827"/>
  <path d="M114 114c0-12 6-20 14-20s14 8 14 20" fill="none" stroke="#fff" stroke-width="7" stroke-linecap="round"/>
  <text x="198" y="135" fill="#fed7aa" font-family="Arial, Helvetica, sans-serif" font-size="34" font-weight="700">AMZREVIEWS</text>
  <text x="84" y="282" fill="#ffffff" font-family="Arial, Helvetica, sans-serif" font-size="74" font-weight="800">Amazon Affiliate</text>
  <text x="88" y="366" fill="#fb923c" font-family="Arial, Helvetica, sans-serif" font-size="54" font-weight="800">Buying Guides</text>
  <text x="90" y="438" fill="#d1d5db" font-family="Arial, Helvetica, sans-serif" font-size="30" font-weight="500">Product comparisons, reviews, and practical recommendations.</text>
</svg>
